<?xml version='1.0' encoding='utf-8'?>
<svg xmlns="http://www.w3.org/2000/svg" viewBox="0 0 766.25 767.5"> <g transform="matrix(1.25,0,0,-1.25,0,767.5)"> <g transform="scale(.24)"> <path d="m345.25 2482.2c-171.81-0.12-268.63-89.16-269-271v-1876c0.3711-169.79 87.418-258.89 260-259h1883c172.04 0.1094 259.21 84.773 259 259v1876c0.21 177.4-86.96 270.88-264 271 0 0-1869.2 0.48-1869 0"/> <path d="m345.25 2482.2c-171.81-0.12-268.63-89.16-269-271v-1876c0.3711-169.79 87.418-258.89 260-259h1883c172.04 0.1094 259.21 84.773 259 259v1876c0.21 177.4-86.96 270.88-264 271 0 0-1869.2 0.48-1869 0z" fill="none" stroke="#000" stroke-miterlimit="10" stroke-width="14.2"/> <path d="m1173.2 2146.2c0.71 141.25 214.25 141.25 214-4v-595l832-500v-220l-828 273v-445l192-149v-174l-296 92-295-92v174l189 149v445l-828-273v220l820 500v599" fill="#fff"/> </g> </g> </svg>