<?xml version="1.0" encoding="utf-8"?>
<svg xmlns="http://www.w3.org/2000/svg" viewBox="0 0 32 32">
    <symbol id="ip" viewBox="0 0 128 128" style="enable-background:new 0 0 128 128;" xml:space="preserve">
        <radialGradient id="SVGID_1_" cx="65.0251" cy="5.0371" r="105.9248" gradientUnits="userSpaceOnUse">
            <stop offset="0.2102" style="stop-color:#01B3F7" />
            <stop offset="0.4574" style="stop-color:#01B3F7" />
        </radialGradient>
        <path style="fill:url(#SVGID_1_);" d="M113.28,28.59C98.3,7.63,73.88,5.55,64.05,5.4c-9.5-0.14-29.7,3.02-44.46,18.19
	C8.64,34.84,3.32,48.85,3.52,65.04c0.18,14.67,5.21,26.76,14.4,37.78c13.57,16.27,32.85,20.49,46.33,20.49c0.38,0,0.76,0,1.14-0.01
	c13.14-0.35,35.87-4.12,49.44-26.33c6-9.82,9.39-21.26,9.53-32.21C124.59,47.1,117.52,34.51,113.28,28.59z M117.18,59.86l-11.5-0.03
	c-0.36-8.24-1.77-15.29-3.78-21.3l8.77,0.03C113.53,43.7,116.47,50.89,117.18,59.86z M10.82,67.6l11.99,0.03
	c0.48,6.73,1.58,14.21,3.95,21.55h-9.75C13.35,82.67,11.29,75.5,10.82,67.6z M67.86,11.74c3.54,1.33,13.82,6.04,21.36,18.76
	l-21.41-0.06L67.86,11.74z M60.81,12.03v18.39l-22.01-0.06C47.04,17.38,58.73,12.76,60.81,12.03z M60.81,38.42v21.31l-30.23-0.07
	c0.2-8.44,1.78-15.47,4.13-21.31L60.81,38.42z M22.52,59.63L10.91,59.6c0.69-7.72,3.13-14.89,6.99-21.31l8.13,0.02
	C23.94,44.32,22.58,51.38,22.52,59.63z M30.75,67.65l30.06,0.07v21.46H35C32.84,83.31,31.29,76.21,30.75,67.65z M60.81,97.18v19.18
	c-4.06-1.3-14.65-5.84-22.15-19.18H60.81z M67.67,116.5l0.14-19.32h22.19C83.15,110.46,72.9,115.25,67.67,116.5z M67.81,89.18V67.74
	l29.63,0.07c-0.35,8.5-1.78,15.54-3.84,21.37H67.81z M67.81,59.74V38.44l25.36,0.07c2.28,5.83,3.88,12.85,4.26,21.3L67.81,59.74z
	 M105.29,30.55l-6.69-0.02c-2.43-4.89-5.22-8.85-7.98-12.03C95.8,21.25,100.91,25.12,105.29,30.55z M37.5,18.97
	c-2.75,3.02-5.55,6.77-7.99,11.35l-5.78-0.02c0.69-0.79,1.4-1.57,2.13-2.33C29.56,24.19,33.52,21.24,37.5,18.97z M23.43,98.15
	c-0.28-0.32-0.55-0.65-0.83-0.97h7.33c2.14,4.47,4.88,8.74,8.38,12.6C32.94,106.9,27.76,103.05,23.43,98.15z M90.49,110.33
	c3-3.65,6.72-8.09,8.78-13.15h6.52C101.75,102.27,95.46,107.52,90.49,110.33z M110.96,89.18h-8.67c2.24-7.35,3.16-14.78,3.41-21.35
	l11.51,0.03C116.53,76.99,113.58,84.25,110.96,89.18z" />
        <g>
            <polygon style="fill:#188AFF;" points="93.65,39.75 67.8,39.67 67.81,37.17 92.74,37.29 	" />
        </g>
        <g>
            <polygon style="fill:#188AFF;" points="60.81,39.65 34.23,39.59 35.18,37.12 60.81,37.15 	" />
        </g>
        <g>
            <polygon style="fill:#188AFF;" points="60.81,68.96 30.83,68.91 30.64,66.4 60.81,66.46 	" />
        </g>
        <g>
            <polygon style="fill:#188AFF;" points="97.39,69.03 67.81,68.97 67.81,66.47 97.51,66.58 	" />
        </g>
        <g>
            <polygon style="fill:#188AFF;" points="117.09,69.08 105.63,69.09 105.74,66.57 117.32,66.6 	" />
        </g>
        <g>
            <polygon style="fill:#188AFF;" points="111.3,39.72 102.31,39.77 101.51,37.35 110.07,37.41 	" />
        </g>
        <g>
            <polygon style="fill:#188AFF;" points="60.81,98.41 39.37,98.4 37.97,96.06 60.85,95.92 	" />
        </g>
        <g>
            <polygon style="fill:#188AFF;" points="89.37,98.34 67.79,98.41 67.81,95.91 90.66,95.98 	" />
        </g>
        <g>
            <polygon style="fill:#188AFF;" points="30.52,98.36 23.73,98.48 21.72,96.2 29.53,96.19 	" />
        </g>
        <g>
            <polygon style="fill:#188AFF;" points="22.89,68.86 10.89,68.85 10.71,66.34 22.75,66.4 	" />
        </g>
        <g>
            <polygon style="fill:#188AFF;" points="25.62,39.55 17.18,39.51 18.56,37.08 26.45,37.06 	" />
        </g>
        <g>
            <polygon style="fill:#188AFF;" points="104.73,98.46 98.71,98.41 99.77,96.05 106.67,96.09 	" />
        </g>
        <g>
            <path style="fill:#188AFF;" d="M38.84,30.31l0.01-0.09c0.2-0.29,3.45-7.47,9.64-12.71c6.29-5.33,12.12-6.93,12.37-7l-0.05,2.65
		c-0.06,0.02-5.2,1.31-11.16,6.11C42.63,24.92,38.89,30.25,38.84,30.31z" />
        </g>
        <g>
            <path style="fill:#188AFF;" d="M89.23,30.51c-0.03-0.05-2.51-4.47-9.45-10.16c-5.51-4.51-11.86-7.34-11.93-7.37l0.03-2.6
		c0.3,0.12,6.88,2.97,12.52,8.03c6.36,5.7,8.66,11.69,8.78,11.91L89.23,30.51z" />
        </g>
        <g>
            <path style="fill:#188AFF;" d="M105.27,30.52c-0.03-0.04-3.38-3.13-7.04-6.05c-3.46-2.77-5.91-3.93-5.95-3.96l-2.54-3.11
		c0.2,0.1,5.83,2.92,9.4,6.02c3.53,3.07,5.94,6.8,6.06,6.95L105.27,30.52z" />
        </g>
        <g>
            <path style="fill:#188AFF;" d="M23.74,30.3l0.03-0.1c0.11-0.13,2.1-3.23,5.56-6.46c4.21-3.92,8.89-5.73,9.05-5.82l-2.24,2.6
		c-0.04,0.02-1.8,0.64-6.19,4.17C26.45,27.51,23.77,30.27,23.74,30.3z" />
        </g>
        <g>
            <path style="fill:#188AFF;" d="M64.11,124.55c-41.05,0-54.65-34.41-54.79-34.75l0.12,0.24c0.14,0.33,15.32,32.01,54.67,32.01
		c0.05,0,0.09,0,0.13,0c21.16-0.04,34.42-8.85,41.83-16.24c8.05-8.03,12.3-15.49,12.33-15.57l0.05-0.1
		c-0.13,0.34-11.93,34.33-54.2,34.41C64.2,124.55,64.15,124.55,64.11,124.55z" />
        </g>
    </symbol>
    <symbol id="school" viewBox="0 0 128 128" style="enable-background:new 0 0 128 128;" xml:space="preserve">
        <g>
            <polygon style="fill:#C62828;" points="31.37,26.45 31.54,8.02 40,5.43 49.75,22.16 	" />
            <path style="opacity:0.59;fill:#37474F;" d="M36.76,20.48c0,0-2.6-11.89,0.34-13.07c5.23-2.09,9.31,11.65,9.31,11.65L36.76,20.48z" />
            <path style="fill:#F44336;" d="M20.59,32.81c-0.09-1.63-2.29-14.63,1.05-21.88c1.53-3.31,7.81-5.51,13.43-6.76
		c1.39-0.31,4.98-0.51,7.21,2.05c2.01,2.31,4.98,7.37,7.91,15l-2.11,4.54c0,0-2.91-7.7-5.82-14.06c-2.41-5.27-5.47-3.52-5.78-2.29
		c-0.56,2.26,2.3,14.51,2.3,14.51C34.62,25.69,20.59,32.81,20.59,32.81z" />
        </g>
        <g>
            <polygon style="fill:#455A64;" points="42.36,17.37 44.11,8.87 51,4.88 59.29,4.9 66.19,10.49 68.1,21.39 59.77,18.58 58.64,10.77 
		51,10.58 49.98,16.79 	" />
        </g>
        <g>
            <path style="fill:#FF7555;" d="M35.06,4.18c-5.62,1.24-11.27,3.03-13.43,6.76c-1.24,2.14-1.96,7.75-1.82,12.96
		c1.09-1.72,5.54-4.69,8.86-6.13c3.31-1.44,3.69-2.87,3.74-3.5c0.25-2.86,0.01-5.22,0.85-7.24c1.06-2.56,2.57-2.88,3.45-3.01
		C36.04,4.02,35.45,4.09,35.06,4.18z" />
            <path style="fill:#FF7555;" d="M39.59,4.46c-0.54-0.19-1.08-0.31-1.6-0.37C38.53,4.23,39.06,4.41,39.59,4.46z" />
        </g>
        <path style="fill:none;stroke:#784D30;stroke-width:9.8158;stroke-miterlimit:10;" d="M89.99,109.24
	c14.88-3.95,19.32-20.76,23.54-22.17" />
        <path style="fill:#C62828;" d="M104.48,74.9c1.09,7.09,3.23,7.62,6.96,7.43c5.65-0.28,6.27-1.58,7.53-11.26
	c1.56-12.02-2.95-28.77-6.84-40.25c-2.06-6.08-1.85-10.25-6.44-14.89c-2.52-2.55-12.33-6.3-15.18-1.42
	c-1.96,3.36-0.98,6.77,0.89,9.47C96.83,31.84,101.83,57.75,104.48,74.9z" />
        <path style="opacity:0.59;fill:#37474F;" d="M93.06,26.91c1.04,2.13,2.11,4.89,2.98,8c8.86-0.27,18.46,3.98,18.46,3.72
	c0-0.22-0.75-5.99-3.19-11.71c-1.06-2.48-4.29-9.28-8.29-8.62C97.99,19.14,93.06,26.91,93.06,26.91z" />
        <path style="fill:#F44336;" d="M85.95,39.19c2.61-5.58,12.26-19.78,17.81-20.24c2.75-0.23,5.84,5.46,6.97,8.57
	c3.17,8.73,6.62,22.43,7.63,36.73c0.63,8.92-1,16.02-4.36,18.97c12.88-2.41,7.85-30.52,6.76-36.34
	c-3.67-19.49-8.48-26.84-12.17-30.77c-2.82-3-15.1-9.35-21.58-9.05c-4.99,0.23-15.91,9.56-18.89,14.73
	C67.24,23.31,85.95,39.19,85.95,39.19z" />
        <path style="fill:#FF7555;" d="M68.66,123.73c16.9-1.34,27.59-10.84,28.71-19.85c3.86-31.14-3.77-76.17-34.16-84.9
	c-3.39-0.97-9.35-2.25-14.53-2.25c-6.03,0-15.33,1.27-22.01,5.85c-12.18,8.36-15.43,20.26-16.23,26.16
	C7.49,70.37,47.4,125.42,68.66,123.73z" />
        <path style="fill:#C62828;" d="M97.37,103.88c2.01-16.2,0.91-36.15-4.89-52.81c-3.02-3.9-6.38-5.73-9.16-4.83
	c-3.34,1.08-6.27,5.53-5.21,10.01c0,0,8.09,32.46,2.59,52.99c-3.64,13.59-13.23,14.52-13.23,14.52c0.4,0,0.8,0,1.19-0.03
	C85.57,122.39,96.25,112.89,97.37,103.88z" />
        <path style="fill:#F44336;" d="M18.62,120.38c5.1,1.61,18.51,3.62,42.26,3.62c21.33,0,21.18-7.59,22.94-16.5
	c3.62-18.38-1.34-78.26-38.49-79.55C12.84,26.81,9.59,45.89,7.14,66.61c-2.56,21.67-1.96,29.78-0.72,38.61
	C8.03,116.76,15.11,119.27,18.62,120.38z" />
        <path style="fill:#37474F;" d="M90.05,59.81c-0.86-4.52-2.08-9.49-4.09-14.34l-2.42,0.11c1.81,4.11,3.31,8.94,4.39,14.63
	c3.45,18.23,3.85,30.45,3.67,37.08c-0.11,3.98,2.08,4,2.19-0.25C93.96,90.23,93.5,78.05,90.05,59.81z" />
        <path style="fill:#E2A610;" d="M92.53,95.21L92.53,95.21c-1.21,0.42-1.95,1.66-1.73,2.92l1.3,7.54c0.21,1.49,1.83,2.33,3.17,1.64
	l3.62-1.85c1.18-0.6,1.56-2.11,0.81-3.2l-4.17-6.06C94.87,95.24,93.64,94.83,92.53,95.21z" />
        <path style="fill:#FFCA28;" d="M94.23,105.83c-0.18-0.33-1.14-5.47-1.43-7.81c-0.32-2.63,0.81-2.78,0.98-2.92
	c-0.49-0.07-0.87-0.02-1.26,0.11c-1.21,0.42-1.95,1.65-1.73,2.92l1.3,7.54c0.15,1.03,0.96,1.75,1.89,1.87
	c0.42,0.05,0.86-0.01,1.28-0.23l0.84-0.43C96.06,106.87,94.82,106.91,94.23,105.83z" />
        <path style="fill:#546E7A;" d="M119.95,92.13l-9.34,0.83c-0.86,0.08-1.63-0.56-1.7-1.43l-0.71-7.93c-0.08-0.86,0.56-1.63,1.43-1.7
	l9.34-0.83c0.86-0.08,1.63,0.56,1.7,1.43l0.71,7.93C121.45,91.29,120.81,92.05,119.95,92.13z" />
        <path style="fill:#37474F;" d="M117.41,92.43l-8.84,0.79c-0.86,0.08-1.63-0.56-1.7-1.43l-0.72-8.09c-0.08-0.86,0.56-1.63,1.43-1.7
	l8.84-0.79c0.86-0.08,1.63,0.56,1.7,1.43l0.72,8.09C118.91,91.59,118.27,92.35,117.41,92.43z" />
        <g>
            <path style="fill:#A06841;" d="M111.28,101.56l-2.71-14.28c-0.05-0.24,0.12-0.47,0.37-0.49l7.13-0.72c0.2-0.02,0.39,0.11,0.44,0.31
		l3.52,13.18c0.23,0.86-0.3,1.75-1.17,1.95l-5.68,1.3C112.31,103,111.44,102.44,111.28,101.56z" />
        </g>
        <path style="opacity:0.65;fill:#FFF59D;" d="M49.47,58.81l-15.43-0.46c-1.35,0-2.45-1.1-2.45-2.45l0.21-7.94
	c0-1.33,1.06-2.42,2.39-2.45l15.26,0.41c1.36-0.04,2.49,1.04,2.52,2.4l-0.03,7.99C51.95,57.68,50.85,58.81,49.47,58.81z" />
        <path style="fill:#FF7555;" d="M87.01,7.05c-3.78,0.12-11.09,5.62-15.58,10.49c2.32-0.19,7.81,2.38,12.37,5.9
	c0.91,0.7,3.15,0.57,4.61-1c1.33-1.43,2.58-2.53,3.92-3.95c7.86-8.33,14.04-4.2,14.04-4.2C99.87,10.06,91.95,6.9,87.01,7.05z" />
        <path style="fill:#546E7A;" d="M86.27,46.23c-4.93-12.32-14.88-24.17-36.62-26.13c-15.1-1.36-25.27,5.65-29.41,8.19
	c-0.92,0.56-1.95,1.26-2.65,2.22c-0.89,1.22-1.01,2.22-1.01,2.22S29.68,20.5,49.45,22.25c11.3,1,26.14,4.77,34.31,23.87
	C84.45,45.95,85.38,46.05,86.27,46.23z" />
        <path style="fill:#FF7555;" d="M69.35,114.25c0,0-15.98,1.11-33.95,0.13c-9.47-0.52-16.41-1.88-17.82-3.71
	c-1.74-2.26-3.8-4.45-3.8-16.07c0-7.83,2.89-14.14,8.49-14.28c4.28-0.11,49.21-0.6,45.82-0.6c-3.39,0-6.45,7.43-6.14,15.44
	C62.71,114.79,69.35,114.25,69.35,114.25z" />
        <path style="fill:#FF7555;" d="M53.67,94.6c0.35-0.1,3.53,0.18,6.07-1.59c0.96-0.67,1.72-1.23,2.33-1.87
	c0.59-6,2.95-10.89,5.59-11.37c0.09-0.02,0.18-0.04,0.26-0.05C64,79.8,31.95,78.62,21.94,78.77c-4.64,0.07-8.22,5.53-7.9,11.95
	c0.67,1.19,1.75,2.47,3.4,2.72C20.68,93.93,53.32,94.71,53.67,94.6z" />
        <path style="opacity:0.45;fill:#FFF59D;" d="M53.67,94.6c0.35-0.1,3.53,0.18,6.07-1.59c0.96-0.67,1.72-1.23,2.33-1.87
	c0.59-6,2.95-10.89,5.59-11.37c0.09-0.02,0.18-0.04,0.26-0.05C64,79.8,31.95,78.62,21.94,78.77c-4.64,0.07-8.22,5.53-7.9,11.95
	c0.67,1.19,1.75,2.47,3.4,2.72C20.68,93.93,53.32,94.71,53.67,94.6z" />
        <path style="fill:#C62828;" d="M74.42,89.7c-0.34-5.22-1.57-7.7-2.69-8.88c-1.03-1.1-2.64-1.19-4.93-1.08
	c-1.42,0.07-4.01,1.43-5.1,9.46l0-0.01c-0.86,1.95-3.11,3.89-6.84,3.89l-35.75-1.16c-3.58-0.23-4.89-3.65-5.06-3.96
	c0,0-0.52,2.41-0.03,3.94c0.62,1.92,2.9,3.06,5.09,3.06l35.75,1.16c2.85,0,5.02-1.13,6.42-2.18c-0.06,1.24-0.09,2.59-0.09,4.05
	c0,15.36,4.43,16.52,7.26,16.39c2.83-0.14,5.6-1.22,6.05-3.73C75.14,107.14,75.07,99.76,74.42,89.7z" />
    </symbol>
    <symbol id="cloud" viewBox="0 0 24 24" fill="none">
        <path d="M3 13.6493C3 16.6044 5.41766 19 8.4 19L16.5 19C18.9853 19 21 16.9839 21 14.4969C21 12.6503 19.8893 10.9449 18.3 10.25C18.1317 7.32251 15.684 5 12.6893 5C10.3514 5 8.34694 6.48637 7.5 8.5C4.8 8.9375 3 11.2001 3 13.6493Z" stroke="#000000" stroke-width="2" stroke-linecap="round" stroke-linejoin="round" />
    </symbol>
</svg>